<svg width="766" height="590" viewBox="0 0 766 590" fill="none" xmlns="http://www.w3.org/2000/svg">
<g clip-path="url(#clip0_201_2)">
<path d="M100.636 576.086H112.895L118.728 528.798L100.633 528.799L100.636 576.086Z" fill="#FFB8B8"/>
<path d="M97.5084 572.084L121.652 572.083H121.653C123.674 572.083 125.675 572.481 127.541 573.254C129.408 574.027 131.104 575.16 132.533 576.589C133.962 578.018 135.095 579.714 135.869 581.581C136.642 583.448 137.04 585.448 137.04 587.469V587.969L97.5092 587.97L97.5084 572.084Z" fill="#2F2E41"/>
<path d="M50.636 576.086H62.895L68.728 528.798L50.633 528.799L50.636 576.086Z" fill="#FFB8B8"/>
<path d="M47.5084 572.084L71.6522 572.083H71.6532C73.6738 572.083 75.6746 572.481 77.5414 573.254C79.4082 574.027 81.1044 575.16 82.5331 576.589C83.9619 578.018 85.0953 579.714 85.8685 581.581C86.6418 583.448 87.0397 585.448 87.0397 587.469V587.969L47.5092 587.97L47.5084 572.084Z" fill="#2F2E41"/>
<path d="M52.994 555.783C51.8493 555.78 50.7487 555.342 49.9158 554.556C49.0828 553.771 48.5801 552.698 48.5097 551.556L37.6417 373.829L110.78 381.721L121.565 541.033C121.635 542.118 121.312 543.192 120.654 544.058C119.996 544.923 119.048 545.522 117.983 545.745L103.472 548.734C102.885 548.855 102.279 548.858 101.691 548.741C101.103 548.625 100.544 548.392 100.047 548.057C99.5501 547.722 99.1252 547.29 98.7972 546.789C98.4692 546.287 98.2448 545.725 98.1371 545.135L80.4061 447.936C80.391 447.814 80.3292 447.704 80.2339 447.627C80.1385 447.551 80.0172 447.515 79.8956 447.526C79.774 447.526 79.657 447.573 79.5682 447.656C79.4793 447.739 79.4253 447.852 79.4171 447.974L68.8312 548.3C68.7393 549.179 68.3898 550.012 67.8267 550.694C67.2635 551.376 66.5117 551.876 65.6654 552.133L54.3109 555.587C53.884 555.717 53.4403 555.783 52.994 555.783V555.783Z" fill="#2F2E41"/>
<path d="M54.3804 242.985C67.945 242.985 78.9414 231.988 78.9414 218.424C78.9414 204.859 67.945 193.863 54.3804 193.863C40.8157 193.863 29.8193 204.859 29.8193 218.424C29.8193 231.988 40.8157 242.985 54.3804 242.985Z" fill="#FFB8B8"/>
<path d="M37.0186 384.84L20.4276 295.668C18.6846 286.44 20.4445 276.894 25.3635 268.894C30.2825 260.894 38.0072 255.015 47.0287 252.406V252.406C52.1885 250.898 57.6101 250.507 62.9329 251.258C68.2557 252.009 73.3576 253.884 77.8991 256.76C82.4406 259.636 86.3176 263.446 89.2721 267.937C92.2265 272.428 94.1908 277.496 95.0341 282.805L110.892 382.656L37.0186 384.84Z" fill="#C27DE2"/>
<path d="M47.5999 400.522C46.3731 399.712 45.3388 398.643 44.57 397.39C43.8011 396.137 43.3163 394.731 43.1497 393.27C42.9832 391.81 43.1389 390.33 43.606 388.936C44.073 387.542 44.8399 386.268 45.8528 385.202L29.4567 353.451L47.9215 355.422L60.6608 385.271C62.3379 387.091 63.289 389.463 63.3339 391.938C63.3788 394.413 62.5144 396.818 60.9045 398.698C59.2946 400.578 57.051 401.802 54.5989 402.138C52.1467 402.474 49.6564 401.9 47.5999 400.522L47.5999 400.522Z" fill="#FFB8B8"/>
<path d="M43.0384 379.626C42.4091 379.566 41.7994 379.375 41.2489 379.064C40.6984 378.753 40.2195 378.33 39.8433 377.822L20.2913 351.39C13.6051 342.353 10.429 331.196 11.3536 319.993L14.3946 283.081C14.1353 281.194 14.2506 279.274 14.7337 277.431C15.2169 275.589 16.0584 273.86 17.2102 272.342C18.362 270.825 19.8016 269.55 21.4465 268.589C23.0915 267.629 24.9096 267.002 26.7969 266.745C28.6843 266.487 30.6039 266.604 32.446 267.089C34.2881 267.574 36.0166 268.417 37.5327 269.57C39.0488 270.723 40.3227 272.164 41.2817 273.81C42.2407 275.456 42.8659 277.275 43.1216 279.162L41.343 337.882L53.8804 367.6C54.238 368.453 54.325 369.395 54.1298 370.299C53.9345 371.203 53.4664 372.025 52.7886 372.654L46.5154 378.451C45.8423 379.072 44.9959 379.474 44.0889 379.602C43.7409 379.651 43.3883 379.659 43.0384 379.626V379.626Z" fill="#C27DE2"/>
<path d="M195.82 205.042C195.552 206.487 194.971 207.857 194.117 209.053C193.263 210.25 192.157 211.244 190.877 211.967C189.596 212.69 188.173 213.124 186.708 213.237C185.242 213.35 183.769 213.141 182.393 212.624L159.548 240.102L154.163 222.33L176.683 198.961C177.705 196.707 179.519 194.906 181.78 193.9C184.042 192.894 186.593 192.752 188.952 193.501C191.311 194.251 193.313 195.84 194.579 197.967C195.845 200.094 196.286 202.611 195.82 205.042V205.042Z" fill="#FFB8B8"/>
<path d="M178.356 217.39C178.546 217.992 178.607 218.628 178.536 219.256C178.464 219.885 178.261 220.491 177.94 221.035L161.223 249.346C155.509 259.026 146.472 266.301 135.796 269.817L100.619 281.409C98.9822 282.384 97.1691 283.028 95.2835 283.302C93.3979 283.576 91.4767 283.476 89.6299 283.007C87.783 282.539 86.0467 281.71 84.5202 280.57C82.9937 279.429 81.707 277.999 80.7338 276.361C79.7605 274.723 79.1198 272.909 78.8482 271.023C78.5766 269.137 78.6794 267.216 79.1509 265.37C79.6224 263.523 80.4532 261.788 81.5958 260.263C82.7385 258.739 84.1705 257.454 85.8101 256.483L140.576 235.227L163.054 212.094C163.7 211.433 164.534 210.985 165.442 210.813C166.351 210.64 167.29 210.75 168.134 211.129L175.918 214.646C176.752 215.023 177.452 215.646 177.924 216.432C178.105 216.733 178.25 217.054 178.356 217.39V217.39Z" fill="#C27DE2"/>
<path opacity="0.1" d="M34.459 303.589L35.459 335.589L53.88 367.6L38.498 331.926L34.459 303.589Z" fill="black"/>
<path d="M57.1943 223.039C58.7369 223.24 60.2998 222.874 61.5928 222.009C62.8859 221.144 63.8211 219.839 64.2248 218.337C64.6142 216.608 65.4668 215.018 66.6913 213.736C67.9158 212.455 69.466 211.531 71.1756 211.063C75.6811 210.034 81.1877 212.155 84.4891 208.741C85.1959 207.962 85.7074 207.026 85.9813 206.01C86.2552 204.994 86.2837 203.928 86.0645 202.899C85.4564 199.582 83.0835 197.076 80.5012 195.071C75.067 190.873 68.4908 188.415 61.6351 188.021C58.0865 187.918 54.5352 188.095 51.0143 188.549C47.3276 188.782 43.6813 189.448 40.1506 190.534C36.1283 192.052 32.5536 194.56 29.7567 197.825C26.9599 201.09 25.0312 205.007 24.1489 209.215C23.3419 213.435 23.4659 217.781 24.512 221.949C25.5582 226.117 27.5014 230.006 30.206 233.345C33.4438 237.377 37.6186 240.555 42.3666 242.604C43.4975 243.138 44.7936 243.203 45.9728 242.787C48.9301 241.611 48.4469 237.947 47.0985 235.504C45.6555 232.889 43.4351 230.358 44.5956 227.175C45.1772 225.7 46.2939 224.498 47.7228 223.809C50.6627 222.31 53.951 222.665 57.1115 223.03L57.1943 223.039Z" fill="#2F2E41"/>
<path d="M764.866 41.5903H295.866V43.5903H764.866V41.5903Z" fill="#3F3D56"/>
<path d="M318.866 30C323.284 30 326.866 26.4183 326.866 22C326.866 17.5817 323.284 14 318.866 14C314.448 14 310.866 17.5817 310.866 22C310.866 26.4183 314.448 30 318.866 30Z" fill="#FF0000"/>
<path d="M343.866 30C348.284 30 351.866 26.4183 351.866 22C351.866 17.5817 348.284 14 343.866 14C339.448 14 335.866 17.5817 335.866 22C335.866 26.4183 339.448 30 343.866 30Z" fill="#2AAD1F"/>
<path d="M368.866 30C373.284 30 376.866 26.4183 376.866 22C376.866 17.5817 373.284 14 368.866 14C364.448 14 360.866 17.5817 360.866 22C360.866 26.4183 364.448 30 368.866 30Z" fill="#FFC700"/>
<path d="M681.126 115H369.126C365.678 115 362.372 113.63 359.934 111.192C357.496 108.754 356.126 105.448 356.126 102C356.126 98.5522 357.496 95.2456 359.934 92.8076C362.372 90.3696 365.678 89 369.126 89H681.126C684.574 89 687.88 90.3696 690.318 92.8076C692.756 95.2456 694.126 98.5522 694.126 102C694.126 105.448 692.756 108.754 690.318 111.192C687.88 113.63 684.574 115 681.126 115V115ZM369.126 91C366.209 91 363.411 92.1589 361.348 94.2218C359.285 96.2847 358.126 99.0826 358.126 102C358.126 104.917 359.285 107.715 361.348 109.778C363.411 111.841 366.209 113 369.126 113H681.126C684.043 113 686.841 111.841 688.904 109.778C690.967 107.715 692.126 104.917 692.126 102C692.126 99.0826 690.967 96.2847 688.904 94.2218C686.841 92.1589 684.043 91 681.126 91H369.126Z" fill="#3F3D56"/>
<path d="M676.162 262.909H372.162C367.787 262.904 363.593 261.164 360.5 258.071C357.407 254.978 355.667 250.784 355.662 246.409V181.409C355.667 177.035 357.407 172.841 360.5 169.747C363.593 166.654 367.787 164.914 372.162 164.909H676.162C680.536 164.914 684.73 166.654 687.823 169.748C690.917 172.841 692.657 177.035 692.662 181.409V246.409C692.657 250.784 690.917 254.978 687.823 258.071C684.73 261.164 680.536 262.904 676.162 262.909V262.909Z" fill="#7582EB" fill-opacity="0.51"/>
<path d="M676.162 388.91H372.162C367.787 388.905 363.593 387.165 360.5 384.071C357.407 380.978 355.667 376.784 355.662 372.41V307.41C355.666 303.035 357.406 298.841 360.5 295.748C363.593 292.654 367.787 290.914 372.162 290.909H676.162C680.536 290.914 684.73 292.654 687.823 295.748C690.917 298.841 692.657 303.035 692.662 307.41V372.41C692.657 376.784 690.916 380.978 687.823 384.071C684.73 387.165 680.536 388.905 676.162 388.91V388.91Z" fill="#FFC700" fill-opacity="0.41"/>
<path d="M676.162 514.91H372.162C367.787 514.905 363.593 513.165 360.5 510.071C357.407 506.978 355.667 502.784 355.662 498.41V433.41C355.667 429.035 357.407 424.841 360.5 421.748C363.593 418.655 367.787 416.915 372.162 416.91H676.162C680.536 416.915 684.73 418.655 687.823 421.748C690.916 424.841 692.657 429.035 692.662 433.41V498.41C692.657 502.784 690.916 506.978 687.823 510.071C684.73 513.165 680.536 514.905 676.162 514.91V514.91Z" fill="#2AAD1F" fill-opacity="0.36"/>
<path d="M502.162 254.909H198.162C193.787 254.904 189.593 253.164 186.5 250.071C183.407 246.978 181.667 242.784 181.662 238.409V173.409C181.667 169.035 183.407 164.841 186.5 161.747C189.593 158.654 193.787 156.914 198.162 156.909H502.162C506.536 156.914 510.73 158.654 513.823 161.748C516.917 164.841 518.657 169.035 518.662 173.409V238.409C518.657 242.784 516.917 246.978 513.823 250.071C510.73 253.164 506.536 254.904 502.162 254.909V254.909Z" fill="white"/>
<path d="M502.161 255.409H198.161C193.654 255.404 189.333 253.612 186.146 250.425C182.959 247.238 181.167 242.917 181.161 238.409V173.409C181.167 168.902 182.959 164.581 186.146 161.394C189.333 158.207 193.654 156.414 198.161 156.409H502.161C506.669 156.414 510.99 158.207 514.177 161.394C517.364 164.581 519.156 168.902 519.161 173.409V238.409C519.156 242.917 517.364 247.238 514.177 250.425C510.99 253.612 506.669 255.404 502.161 255.409ZM198.161 158.409C194.185 158.414 190.372 159.996 187.56 162.808C184.748 165.62 183.166 169.433 183.161 173.409V238.409C183.166 242.386 184.748 246.199 187.56 249.011C190.372 251.823 194.185 253.405 198.161 253.409H502.161C506.138 253.405 509.951 251.823 512.763 249.011C515.575 246.199 517.157 242.386 517.161 238.409V173.409C517.157 169.433 515.575 165.62 512.763 162.808C509.951 159.996 506.138 158.414 502.161 158.409H198.161Z" fill="#3F3D56"/>
<path d="M465.161 238.909H235.161C230.787 238.904 226.593 237.165 223.5 234.071C220.406 230.978 218.666 226.784 218.661 222.409V188.409C218.666 184.035 220.406 179.841 223.5 176.748C226.593 173.654 230.787 171.914 235.161 171.909H465.161C469.536 171.914 473.73 173.654 476.823 176.748C479.916 179.841 481.656 184.035 481.661 188.409V222.409C481.656 226.784 479.916 230.978 476.823 234.071C473.73 237.165 469.536 238.904 465.161 238.909Z" fill="#F2F2F2"/>
<path d="M284.656 220.584C295.554 220.584 304.389 211.749 304.389 200.852C304.389 189.954 295.554 181.119 284.656 181.119C273.759 181.119 264.924 189.954 264.924 200.852C264.924 211.749 273.759 220.584 284.656 220.584Z" fill="#FFC700"/>
<path d="M450.868 236.918L423.016 213.558L395.644 190.602C394.922 189.996 394.009 189.665 393.066 189.667C392.123 189.669 391.211 190.003 390.491 190.612L363.208 213.674L356.544 219.307L346.496 210.88L315.959 185.269C315.236 184.663 314.323 184.332 313.381 184.334C312.438 184.335 311.526 184.67 310.806 185.279L280.368 211.007L249.451 237.14C249.295 237.273 249.183 237.45 249.13 237.648C249.078 237.847 249.088 238.056 249.158 238.249C249.229 238.441 249.357 238.607 249.525 238.725C249.694 238.842 249.894 238.905 250.099 238.904L313.486 238.782L333.55 238.743L333.353 238.909L393.161 238.794L450.228 238.684C450.433 238.684 450.633 238.62 450.801 238.503C450.969 238.385 451.096 238.218 451.166 238.025C451.236 237.833 451.245 237.623 451.192 237.425C451.138 237.227 451.026 237.05 450.868 236.918V236.918Z" fill="#00B594"/>
<path d="M193 589.409H1C0.734784 589.409 0.480429 589.304 0.292892 589.117C0.105356 588.929 0 588.675 0 588.409C0 588.144 0.105356 587.89 0.292892 587.702C0.480429 587.515 0.734784 587.409 1 587.409H193C193.265 587.409 193.52 587.515 193.707 587.702C193.895 587.89 194 588.144 194 588.409C194 588.675 193.895 588.929 193.707 589.117C193.52 589.304 193.265 589.409 193 589.409Z" fill="#3F3D56"/>
</g>
<defs>
<clipPath id="clip0_201_2">
<rect width="765.866" height="589.409" fill="white"/>
</clipPath>
</defs>
</svg>
